<svg xmlns="http://www.w3.org/2000/svg" xmlns:xlink="http://www.w3.org/1999/xlink" version="1.1" x="0px" y="0px" viewBox="0 0 256 256" enable-background="new 0 0 256 256" xml:space="preserve">
<metadata fill="#e00f0f"> Svg Vector Icons : http://www.onlinewebfonts.com/icon </metadata>
<g><g><path fill="#e00f0f" d="M128,10C62.8,10,10,62.8,10,128c0,65.2,52.8,118,118,118c65.2,0,118-52.8,118-118C246,62.8,193.2,10,128,10z M128,231.3c-56.9,0-103.2-46.3-103.2-103.3C24.8,71.1,71.1,24.8,128,24.8c56.9,0,103.3,46.3,103.3,103.2C231.3,184.9,184.9,231.3,128,231.3z"/><path fill="#e00f0f" d="M128,164.6c-6.7,0-12.2,5.5-12.2,12.2c0,6.7,5.5,12.2,12.2,12.2s12.2-5.5,12.2-12.2C140.2,170,134.7,164.6,128,164.6 M140.2,67h-24.4c-3.4,0-6.1,2.7-6.1,6.1c0,0.2,0.1,0.3,0.1,0.4h-0.1l6.1,73.2h0.1c0.2,3.2,2.8,5.7,6,5.7h12.2c3.2,0,5.8-2.5,6-5.7h0.1l6.1-73.2h-0.1c0-0.1,0.1-0.3,0.1-0.4C146.3,69.8,143.6,67,140.2,67"/></g></g>
</svg>